<?xml version="1.0" standalone="no"?><!DOCTYPE svg PUBLIC "-//W3C//DTD SVG 1.1//EN" "http://www.w3.org/Graphics/SVG/1.1/DTD/svg11.dtd"><svg t="1564709940069" class="icon" viewBox="0 0 1024 1024" version="1.1" xmlns="http://www.w3.org/2000/svg" p-id="5078" xmlns:xlink="http://www.w3.org/1999/xlink" width="128" height="128"><defs><style type="text/css"></style></defs><path d="M393.728 234.24c30.976-46.08 76.8-86.784 98.56-109.056 28.16-28.672 47.872-47.36 125.184-31.744 53.248 10.752 130.304 27.904 155.392 35.84 25.088 7.936 103.936 37.376 103.936 140.8v211.456c0.256 3.072 0.512 6.4 0.512 9.472v365.568c0 22.528-8.96 44.288-24.832 60.16-15.872 15.872-37.632 24.832-60.16 24.832H227.584c-22.528 0-44.288-8.96-60.16-24.832-15.872-15.872-24.832-37.632-24.832-60.16V276.736c0-46.848 22.016-120.832 68.864-120.832h104.96c31.744-0.256 62.464 52.736 77.312 78.336zM216.832 92.16h93.184c23.552 0 42.496 18.944 42.496 42.496v32.512H174.08V134.656C174.08 111.104 193.28 92.16 216.832 92.16z m177.664 654.592c57.856 0 94.72-35.072 94.72-94.464 0-39.424-24.832-87.296-94.72-169.216-69.888 81.92-94.72 129.792-94.72 169.472 0 58.88 36.864 94.208 94.72 94.208z m233.472-543.744c-18.176-4.608-37.376-1.792-53.504 7.424-12.288 7.424-16.128 20.48-25.6 37.12-12.8 22.528-7.936 56.064 15.104 60.16 45.312 6.912 91.392 17.92 137.984 17.664 36.352-0.256 36.096-34.304 36.096-50.176 0-16.128-2.304-41.216-30.72-49.408-28.416-8.448-44.8-13.824-65.792-18.944l-13.568-3.84z m13.312 3.328" p-id="5079"></path></svg>